<svg id="svg" xmlns="http://www.w3.org/2000/svg" xmlns:xlink="http://www.w3.org/1999/xlink" width="500" height="444.08897014015844" viewBox="0, 0, 500,444.08897014015844"><g id="svgg"><path id="path0" d="M410.954 33.338 C 379.633 64.633,370.468 73.684,351.158 92.396 C 331.609 111.338,316.613 126.187,306.999 136.121 C 282.953 160.967,267.215 178.139,267.215 179.530 C 267.215 180.953,269.210 183.428,272.096 185.585 C 274.550 187.419,275.742 188.803,276.424 190.611 L 276.692 191.322 276.189 192.053 C 275.616 192.887,273.796 194.739,271.533 196.793 C 269.356 198.768,267.798 200.955,267.218 202.849 C 265.982 206.879,259.358 216.940,249.612 229.586 C 241.312 240.356,236.751 250.276,235.533 260.207 C 235.435 261.003,235.333 261.767,235.307 261.905 C 235.274 262.076,236.017 262.712,237.670 263.928 L 240.080 265.701 241.574 265.396 C 250.690 263.533,260.207 258.631,271.000 250.238 C 281.470 242.098,290.629 236.872,297.177 235.305 L 298.270 235.043 300.453 232.674 C 304.178 228.632,307.729 225.386,309.217 224.663 L 309.876 224.343 310.134 224.712 C 313.429 229.416,318.134 232.277,322.075 231.973 C 326.239 231.652,329.363 229.295,336.544 221.054 C 337.749 219.672,339.943 217.204,341.419 215.570 C 343.058 213.756,370.281 186.478,411.349 145.500 C 476.800 80.192,483.299 73.677,489.176 67.482 C 494.703 61.655,498.980 56.705,499.691 55.309 C 501.664 51.442,494.347 42.107,479.814 29.950 C 477.464 27.984,474.440 25.054,463.726 14.361 L 450.533 1.192 447.730 0.601 C 446.188 0.276,444.790 0.008,444.622 0.006 C 444.417 0.003,433.371 10.939,410.954 33.338 M173.979 106.744 C 157.981 107.443,144.792 109.304,131.551 112.732 C 86.407 124.418,47.173 153.131,24.457 191.107 C -9.821 248.414,-7.949 332.082,28.864 388.104 C 49.108 418.913,78.038 438.482,110.146 443.087 C 116.024 443.930,117.271 444.013,124.086 444.013 C 141.208 444.013,156.070 439.887,168.590 431.658 C 184.073 421.482,187.446 409.788,181.750 386.045 C 178.630 373.044,178.379 365.432,180.826 358.012 C 185.027 345.267,193.344 334.862,206.124 326.364 C 216.293 319.603,228.094 314.798,263.102 303.164 C 289.798 294.293,300.280 289.855,311.776 282.559 C 329.543 271.284,339.801 254.899,342.461 233.547 C 343.024 229.031,343.230 225.472,342.929 225.472 C 342.517 225.472,336.192 229.968,332.419 232.943 C 322.345 240.887,314.637 240.721,308.272 232.424 C 307.338 231.206,307.443 231.206,306.731 232.429 C 304.286 236.629,298.885 239.503,291.288 240.649 L 289.539 240.912 288.013 242.232 C 272.775 255.414,256.036 265.187,240.976 269.695 L 239.188 270.230 238.310 269.618 C 230.885 264.448,229.932 256.356,235.376 244.726 C 237.951 239.225,242.148 233.195,253.862 218.167 C 257.630 213.332,259.141 211.283,259.142 211.006 C 259.149 208.467,262.050 202.236,267.118 193.875 C 268.852 191.013,268.775 191.418,267.742 190.594 C 261.753 185.815,260.262 179.655,263.519 173.141 C 265.628 168.923,267.549 166.723,276.965 157.742 C 288.624 146.622,297.060 137.956,297.073 137.085 C 297.078 136.760,284.522 130.266,278.707 127.586 C 245.758 112.400,209.534 105.191,173.979 106.744 M200.085 133.308 C 212.299 134.466,220.740 141.646,222.611 152.467 C 225.331 168.204,214.646 182.097,198.144 184.281 C 180.537 186.610,166.091 169.378,171.309 152.271 C 175.182 139.572,186.625 132.031,200.085 133.308 M340.123 137.552 C 343.881 139.259,349.473 143.757,354.064 148.766 C 357.656 152.685,362.839 159.171,362.690 159.560 C 361.909 161.594,344.035 180.039,330.934 192.328 L 329.982 193.221 327.201 190.493 C 324.251 187.598,319.923 183.597,312.230 176.651 C 309.634 174.308,307.531 172.320,307.557 172.233 C 307.737 171.617,309.736 168.438,311.006 166.748 C 314.135 162.582,317.736 158.827,327.377 149.674 C 331.917 145.365,336.543 140.600,338.212 138.515 C 339.313 137.139,339.266 137.163,340.123 137.552 M107.524 158.904 C 125.565 160.854,137.205 174.488,133.516 189.352 C 132.726 192.536,130.947 196.573,130.190 196.900 C 129.313 197.279,124.336 201.493,117.640 207.527 L 115.002 209.904 113.907 210.017 C 93.924 212.088,79.209 199.686,80.734 182.060 C 81.928 168.260,89.272 160.354,102.300 158.843 C 103.342 158.723,106.144 158.755,107.524 158.904 M184.796 228.671 C 188.592 229.007,188.087 228.833,189.854 230.420 C 193.079 233.318,199.355 240.646,205.968 249.238 C 213.875 259.511,221.189 265.819,228.580 268.742 L 229.478 269.097 229.037 269.458 C 221.707 275.450,202.000 278.291,182.801 276.124 C 169.046 274.572,157.688 265.507,154.727 253.719 C 150.728 237.796,163.903 226.821,184.796 228.671 M63.190 234.891 C 75.700 237.628,83.014 249.035,81.357 263.227 C 79.563 278.596,65.126 288.591,49.974 284.955 C 41.642 282.956,34.629 276.002,32.382 267.512 C 28.323 252.175,36.054 238.289,50.354 235.231 C 54.328 234.381,60.153 234.227,63.190 234.891 M70.625 324.047 C 83.547 325.096,92.811 336.055,92.835 350.320 C 92.863 366.891,81.067 377.201,64.170 375.373 C 40.755 372.840,34.168 338.159,55.016 327.179 C 58.170 325.518,62.530 324.352,66.728 324.048 C 67.607 323.984,68.403 323.922,68.496 323.910 C 68.588 323.898,69.546 323.960,70.625 324.047 " stroke="none" fill="#000000" fill-rule="evenodd"></path></g></svg>