<?xml version="1.0" encoding="UTF-8"?>
<svg xmlns="http://www.w3.org/2000/svg" xmlns:xlink="http://www.w3.org/1999/xlink" width="48px" height="48px" viewBox="0 0 48 48" version="1.1">
<g id="surface1">
<path style=" stroke:none;fill-rule:nonzero;fill:rgb(0%,0%,0%);fill-opacity:1;" d="M 29.121094 8.246094 C 29.195312 8.308594 29.269531 8.371094 29.34375 8.4375 C 29.417969 8.5 29.496094 8.5625 29.574219 8.625 C 30.339844 9.277344 31.0625 10.070312 31.511719 10.980469 C 31.851562 11.703125 31.851562 11.703125 32.492188 12.132812 C 32.8125 12.199219 33.136719 12.230469 33.460938 12.257812 C 35.882812 12.554688 38.289062 14.46875 39.75 16.3125 C 40.628906 17.550781 41.304688 18.878906 41.71875 20.34375 C 41.765625 20.503906 41.765625 20.503906 41.808594 20.664062 C 42.015625 21.546875 42.023438 22.429688 42.023438 23.332031 C 42.023438 23.394531 42.023438 23.457031 42.023438 23.523438 C 42.019531 24.113281 42.015625 24.691406 41.917969 25.277344 C 41.878906 25.632812 41.886719 25.660156 42.117188 25.96875 C 42.214844 26.046875 42.3125 26.125 42.414062 26.199219 C 42.519531 26.285156 42.625 26.371094 42.730469 26.460938 C 42.78125 26.503906 42.832031 26.546875 42.886719 26.589844 C 44.089844 27.660156 44.917969 29.71875 45.015625 31.292969 C 45.074219 34.046875 44.523438 36.148438 42.609375 38.207031 C 41.089844 39.695312 39.074219 40.515625 36.960938 40.515625 C 36.808594 40.515625 36.808594 40.515625 36.652344 40.515625 C 36.308594 40.515625 35.96875 40.515625 35.628906 40.515625 C 35.382812 40.515625 35.140625 40.519531 34.894531 40.519531 C 34.160156 40.519531 33.425781 40.519531 32.691406 40.523438 C 32.34375 40.523438 32 40.523438 31.652344 40.523438 C 30.5 40.523438 29.34375 40.527344 28.191406 40.527344 C 27.894531 40.527344 27.59375 40.527344 27.292969 40.527344 C 27.21875 40.527344 27.144531 40.527344 27.070312 40.527344 C 25.867188 40.527344 24.667969 40.53125 23.464844 40.535156 C 22.230469 40.539062 20.992188 40.539062 19.757812 40.539062 C 19.0625 40.539062 18.371094 40.539062 17.679688 40.542969 C 17.085938 40.542969 16.496094 40.546875 15.90625 40.542969 C 15.605469 40.542969 15.304688 40.542969 15.003906 40.546875 C 13.289062 40.554688 11.601562 40.46875 10 39.78125 C 9.925781 39.746094 9.847656 39.714844 9.769531 39.683594 C 8.515625 39.140625 7.472656 38.417969 6.46875 37.5 C 6.394531 37.433594 6.320312 37.367188 6.242188 37.296875 C 5.179688 36.292969 4.433594 35.074219 3.84375 33.75 C 3.777344 33.601562 3.777344 33.601562 3.707031 33.445312 C 2.585938 30.769531 2.675781 27.640625 3.734375 24.960938 C 4.949219 22.035156 7.207031 19.917969 10.089844 18.699219 C 10.746094 18.441406 11.382812 18.1875 12.09375 18.1875 C 12.0625 18.09375 12.03125 18 12 17.90625 C 11.90625 16.394531 11.90625 14.855469 12.375 13.40625 C 12.394531 13.34375 12.414062 13.277344 12.4375 13.210938 C 12.867188 11.878906 13.515625 10.71875 14.4375 9.65625 C 14.53125 9.542969 14.53125 9.542969 14.625 9.425781 C 16.171875 7.605469 18.566406 6.28125 20.953125 6.019531 C 23.910156 5.789062 26.800781 6.285156 29.121094 8.246094 Z M 28.488281 19.679688 C 28.363281 19.804688 28.363281 19.804688 28.234375 19.933594 C 28.003906 20.164062 27.773438 20.394531 27.546875 20.625 C 27.304688 20.863281 27.066406 21.105469 26.824219 21.34375 C 26.371094 21.800781 25.914062 22.257812 25.460938 22.710938 C 24.945312 23.230469 24.425781 23.75 23.910156 24.269531 C 22.84375 25.335938 21.78125 26.402344 20.71875 27.46875 C 20.382812 27.3125 20.171875 27.128906 19.910156 26.859375 C 19.789062 26.734375 19.789062 26.734375 19.664062 26.609375 C 19.492188 26.433594 19.320312 26.257812 19.148438 26.078125 C 19.027344 25.957031 19.027344 25.957031 18.902344 25.828125 C 18.828125 25.75 18.753906 25.675781 18.675781 25.597656 C 18.265625 25.21875 17.933594 25.175781 17.386719 25.1875 C 16.917969 25.25 16.675781 25.503906 16.371094 25.839844 C 16.167969 26.257812 16.125 26.636719 16.21875 27.09375 C 16.515625 27.601562 16.902344 27.988281 17.3125 28.402344 C 17.382812 28.472656 17.453125 28.539062 17.523438 28.613281 C 17.671875 28.757812 17.816406 28.90625 17.964844 29.050781 C 18.1875 29.273438 18.410156 29.496094 18.632812 29.722656 C 18.777344 29.863281 18.917969 30.007812 19.0625 30.148438 C 19.128906 30.214844 19.195312 30.28125 19.261719 30.351562 C 19.355469 30.445312 19.355469 30.445312 19.453125 30.539062 C 19.507812 30.59375 19.5625 30.648438 19.617188 30.703125 C 19.933594 30.972656 20.203125 31.058594 20.613281 31.066406 C 20.691406 31.070312 20.765625 31.070312 20.847656 31.074219 C 21.363281 30.984375 21.742188 30.59375 22.101562 30.238281 C 22.183594 30.152344 22.269531 30.070312 22.355469 29.984375 C 22.445312 29.890625 22.539062 29.800781 22.628906 29.707031 C 22.726562 29.609375 22.824219 29.511719 22.921875 29.414062 C 23.1875 29.152344 23.449219 28.886719 23.714844 28.625 C 23.988281 28.347656 24.265625 28.070312 24.542969 27.792969 C 25.007812 27.332031 25.472656 26.867188 25.933594 26.402344 C 26.46875 25.867188 27.007812 25.328125 27.542969 24.792969 C 28.003906 24.335938 28.464844 23.875 28.925781 23.414062 C 29.199219 23.136719 29.476562 22.863281 29.75 22.585938 C 30.007812 22.328125 30.269531 22.070312 30.527344 21.8125 C 30.621094 21.714844 30.714844 21.621094 30.808594 21.527344 C 30.941406 21.398438 31.070312 21.269531 31.199219 21.136719 C 31.269531 21.066406 31.34375 20.992188 31.417969 20.917969 C 31.78125 20.507812 31.824219 20.171875 31.8125 19.636719 C 31.75 19.167969 31.496094 18.925781 31.160156 18.621094 C 29.984375 18.054688 29.269531 18.890625 28.488281 19.679688 Z M 28.488281 19.679688 "/>
</g>
</svg>
