<?xml version="1.0" encoding="UTF-8"?>
<svg xmlns="http://www.w3.org/2000/svg" xmlns:xlink="http://www.w3.org/1999/xlink" width="128px" height="128px" viewBox="0 0 128 128" version="1.1">
<g id="surface1">
<path style=" stroke:none;fill-rule:nonzero;fill:rgb(0%,0%,0%);fill-opacity:1;" d="M 63.84375 15.9375 C 64.128906 15.9375 64.128906 15.9375 64.421875 15.9375 C 67.1875 15.941406 69.820312 16.019531 72.5 16.75 C 72.667969 16.796875 72.835938 16.839844 73.007812 16.886719 C 82.757812 19.597656 90.625 25.601562 95.660156 34.386719 C 97.386719 37.492188 98.78125 40.628906 99.226562 44.175781 C 99.433594 46.984375 99.433594 46.984375 100.640625 49.402344 C 101.59375 49.980469 102.640625 50.167969 103.726562 50.375 C 108.722656 51.570312 113.4375 57.011719 116.035156 61.089844 C 119.832031 67.375 121.222656 74.984375 119.59375 82.21875 C 119.417969 82.90625 119.21875 83.578125 119 84.25 C 118.917969 84.503906 118.917969 84.503906 118.835938 84.765625 C 117.691406 88.324219 115.953125 91.421875 113.5 94.25 C 113.335938 94.453125 113.167969 94.652344 112.996094 94.863281 C 108.648438 99.984375 102.351562 103.058594 95.75 104 C 94.894531 104.0625 94.042969 104.070312 93.183594 104.066406 C 92.941406 104.066406 92.699219 104.070312 92.449219 104.070312 C 91.644531 104.074219 90.835938 104.074219 90.03125 104.074219 C 89.453125 104.074219 88.871094 104.074219 88.289062 104.078125 C 86.714844 104.082031 85.144531 104.082031 83.570312 104.082031 C 82.585938 104.085938 81.601562 104.085938 80.617188 104.085938 C 77.351562 104.089844 74.085938 104.09375 70.820312 104.09375 C 70.644531 104.09375 70.46875 104.09375 70.289062 104.09375 C 70.113281 104.09375 69.9375 104.09375 69.757812 104.09375 C 66.914062 104.09375 64.066406 104.097656 61.222656 104.105469 C 58.292969 104.113281 55.363281 104.113281 52.433594 104.113281 C 50.792969 104.113281 49.152344 104.117188 47.511719 104.121094 C 45.964844 104.125 44.417969 104.125 42.871094 104.121094 C 42.308594 104.121094 41.746094 104.121094 41.183594 104.125 C 32.066406 104.171875 24.144531 101.363281 17.5 95 C 17.3125 94.828125 17.125 94.660156 16.933594 94.484375 C 15.28125 92.917969 14.003906 91.140625 12.75 89.25 C 12.59375 89.015625 12.433594 88.785156 12.273438 88.542969 C 7.941406 81.652344 6.761719 72.550781 8.539062 64.65625 C 10.003906 58.855469 12.875 53.808594 17 49.5 C 17.171875 49.3125 17.339844 49.125 17.515625 48.933594 C 20.476562 45.804688 24.65625 43.132812 28.75 41.75 C 28.996094 41.75 29.246094 41.75 29.5 41.75 C 29.527344 41.5 29.550781 41.25 29.578125 40.992188 C 29.726562 39.964844 30.085938 39.0625 30.515625 38.125 C 30.59375 37.953125 30.671875 37.78125 30.75 37.601562 C 32.621094 33.503906 34.886719 30.042969 38 26.75 C 38.1875 26.546875 38.375 26.34375 38.566406 26.136719 C 45.144531 19.230469 54.457031 15.945312 63.84375 15.9375 Z M 56.953125 45.09375 C 56.699219 45.167969 56.699219 45.167969 56.4375 45.242188 C 54.976562 45.695312 53.660156 46.261719 52.65625 47.453125 C 52.023438 48.695312 51.84375 49.695312 52.265625 51.03125 C 52.710938 52.089844 53.308594 52.601562 54.25 53.25 C 55.898438 53.800781 57.179688 53.496094 58.75 52.875 C 62.300781 51.632812 66.808594 51.675781 70.25 53.25 C 70.484375 53.355469 70.71875 53.460938 70.957031 53.570312 C 75.472656 55.839844 77.871094 59.378906 79.5 64 C 79.273438 63.992188 79.046875 63.984375 78.8125 63.972656 C 75.882812 63.847656 75.882812 63.847656 73.34375 65.117188 C 72.53125 66.054688 72.207031 66.71875 72.171875 67.9375 C 72.164062 68.148438 72.152344 68.359375 72.144531 68.574219 C 72.414062 70.300781 73.988281 71.5625 75.171875 72.738281 C 75.355469 72.921875 75.542969 73.109375 75.730469 73.300781 C 76.121094 73.691406 76.511719 74.078125 76.902344 74.46875 C 77.5 75.0625 78.09375 75.660156 78.6875 76.257812 C 79.070312 76.636719 79.449219 77.015625 79.828125 77.394531 C 80.003906 77.574219 80.183594 77.75 80.367188 77.9375 C 80.535156 78.101562 80.699219 78.265625 80.871094 78.4375 C 81.019531 78.582031 81.164062 78.726562 81.3125 78.878906 C 82.152344 79.59375 82.871094 79.828125 83.96875 79.84375 C 84.175781 79.851562 84.378906 79.859375 84.59375 79.867188 C 86.308594 79.566406 87.5625 78.011719 88.738281 76.828125 C 88.921875 76.644531 89.109375 76.457031 89.300781 76.269531 C 89.691406 75.878906 90.078125 75.488281 90.46875 75.097656 C 91.0625 74.5 91.660156 73.90625 92.257812 73.3125 C 92.636719 72.929688 93.015625 72.550781 93.394531 72.171875 C 93.574219 71.996094 93.75 71.816406 93.9375 71.632812 C 94.101562 71.464844 94.265625 71.300781 94.4375 71.128906 C 94.582031 70.980469 94.726562 70.835938 94.878906 70.6875 C 95.773438 69.636719 95.859375 68.710938 95.828125 67.367188 C 95.667969 66.089844 94.992188 65.441406 94.015625 64.671875 C 92.609375 63.894531 91.238281 63.96875 89.671875 63.984375 C 89.460938 63.984375 89.253906 63.988281 89.039062 63.988281 C 88.527344 63.992188 88.011719 63.996094 87.5 64 C 87.472656 63.765625 87.472656 63.765625 87.445312 63.53125 C 86.59375 57.808594 83.09375 52.636719 78.667969 49.023438 C 72.316406 44.378906 64.542969 42.867188 56.953125 45.09375 Z M 39.261719 59.171875 C 38.984375 59.449219 38.984375 59.449219 38.699219 59.730469 C 38.308594 60.121094 37.921875 60.511719 37.53125 60.902344 C 36.9375 61.5 36.339844 62.09375 35.742188 62.6875 C 35.363281 63.070312 34.984375 63.449219 34.605469 63.828125 C 34.425781 64.003906 34.25 64.183594 34.0625 64.367188 C 33.898438 64.535156 33.734375 64.699219 33.5625 64.871094 C 33.417969 65.019531 33.273438 65.164062 33.121094 65.3125 C 32.226562 66.363281 32.140625 67.289062 32.171875 68.632812 C 32.332031 69.910156 33.007812 70.558594 33.984375 71.328125 C 35.390625 72.105469 36.761719 72.03125 38.328125 72.015625 C 38.539062 72.015625 38.746094 72.011719 38.960938 72.011719 C 39.472656 72.007812 39.988281 72.003906 40.5 72 C 40.519531 72.15625 40.539062 72.308594 40.554688 72.46875 C 41.40625 78.191406 44.90625 83.363281 49.332031 86.976562 C 54.667969 90.878906 61.0625 92.695312 67.648438 91.707031 C 70.582031 91.191406 73.683594 90.554688 75.5 88 C 75.964844 87.070312 75.859375 86.015625 75.75 85 C 75.230469 83.875 74.566406 83.222656 73.476562 82.671875 C 71.789062 82.058594 70.308594 82.671875 68.707031 83.257812 C 65.085938 84.5 60.6875 84.070312 57.25 82.5 C 57.042969 82.40625 56.832031 82.3125 56.617188 82.21875 C 52.308594 80.046875 50.046875 76.386719 48.5 72 C 48.726562 72.007812 48.953125 72.015625 49.1875 72.027344 C 52.117188 72.152344 52.117188 72.152344 54.65625 70.882812 C 55.46875 69.945312 55.792969 69.28125 55.828125 68.0625 C 55.835938 67.851562 55.847656 67.640625 55.855469 67.425781 C 55.585938 65.699219 54.011719 64.4375 52.828125 63.261719 C 52.644531 63.078125 52.457031 62.890625 52.269531 62.699219 C 51.878906 62.308594 51.488281 61.921875 51.097656 61.53125 C 50.5 60.9375 49.90625 60.339844 49.3125 59.742188 C 48.929688 59.363281 48.550781 58.984375 48.171875 58.605469 C 47.996094 58.425781 47.816406 58.25 47.632812 58.0625 C 47.464844 57.898438 47.300781 57.734375 47.128906 57.5625 C 46.980469 57.417969 46.835938 57.273438 46.6875 57.121094 C 45.847656 56.40625 45.128906 56.171875 44.03125 56.15625 C 43.824219 56.148438 43.621094 56.140625 43.40625 56.132812 C 41.691406 56.433594 40.4375 57.988281 39.261719 59.171875 Z M 39.261719 59.171875 "/>
</g>
</svg>
